<svg width="82" height="82" viewBox="0 0 82 82" fill="none" xmlns="http://www.w3.org/2000/svg">
<path d="M61.8203 8.48828C61.8203 9.37289 61.1034 10.0898 60.2188 10.0898C59.3341 10.0898 58.6172 9.37289 58.6172 8.48828C58.6172 7.60367 59.3341 6.88672 60.2188 6.88672C61.1034 6.88672 61.8203 7.60367 61.8203 8.48828Z" fill="#DB805D"/>
<path d="M60.2188 16.9766H21.7812C17.3657 16.9766 13.7734 20.5688 13.7734 24.9844V63.4219C13.7734 67.8374 17.3657 71.4297 21.7812 71.4297H37.7969C38.6815 71.4297 39.3984 70.7127 39.3984 69.8281V53.8125C39.3984 52.9279 38.6815 52.2109 37.7969 52.2109H32.9922V45.8047H37.7969C38.6815 45.8047 39.3984 45.0877 39.3984 44.2031V37.7969C39.3984 33.3813 42.9907 29.7891 47.4062 29.7891H55.4141V36.1953H49.0078C47.2417 36.1953 45.8047 37.6323 45.8047 39.3984V44.2031C45.8047 45.0877 46.5216 45.8047 47.4062 45.8047H55.125L54.0571 52.2109H47.4062C46.5216 52.2109 45.8047 52.9279 45.8047 53.8125V69.8281C45.8047 70.7127 46.5216 71.4297 47.4062 71.4297H60.2188C64.6343 71.4297 68.2266 67.8374 68.2266 63.4219V24.9844C68.2266 20.5688 64.6343 16.9766 60.2188 16.9766Z" fill="#DB805D"/>
<path d="M73.9922 0H8.00781C3.59225 0 0 3.59225 0 8.00781V73.9922C0 78.4077 3.59225 82 8.00781 82H73.9922C78.4077 82 82 78.4077 82 73.9922V8.00781C82 3.59225 78.4077 0 73.9922 0ZM78.7969 73.9922C78.7969 76.6416 76.6416 78.7969 73.9922 78.7969H8.00781C5.35835 78.7969 3.20312 76.6416 3.20312 73.9922V8.00781C3.20312 5.35835 5.35835 3.20312 8.00781 3.20312H73.9922C76.6416 3.20312 78.7969 5.35835 78.7969 8.00781V73.9922Z" fill="#DB805D"/>
<path d="M21.7812 10.0898H53.8125C54.6971 10.0898 55.4141 9.37289 55.4141 8.48828C55.4141 7.60367 54.6971 6.88672 53.8125 6.88672H21.7812C20.8966 6.88672 20.1797 7.60367 20.1797 8.48828C20.1797 9.37289 20.8966 10.0898 21.7812 10.0898Z" fill="#DB805D"/>
</svg>
