<?xml version="1.0" encoding="UTF-8"?>
<svg width="82" height="82" version="1.1" viewBox="0 0 82 82" xml:space="preserve" xmlns="http://www.w3.org/2000/svg"><path d="m61.82 8.4883c0 0.88461-0.7169 1.6015-1.6015 1.6015-0.8847 0-1.6016-0.71691-1.6016-1.6015s0.7169-1.6016 1.6016-1.6016c0.8846 0 1.6015 0.71695 1.6015 1.6016z" fill="#DB805D"/><path d="m41 25.658c6.2997 0 7.0469 0.0236 9.5361 0.13764 6.3941 0.291 9.3808 3.3249 9.6718 9.6718 0.11404 2.4873 0.13567 3.2344 0.13567 9.5342 0 6.3017-0.0236 7.0469-0.13567 9.5342-0.29297 6.341-3.2718 9.3808-9.6718 9.6718-2.4892 0.11404-3.2325 0.13764-9.5361 0.13764-6.2997 0-7.0469-0.0236-9.5342-0.13764-6.4099-0.29297-9.3808-3.3406-9.6718-9.6738-0.11404-2.4873-0.13763-3.2325-0.13763-9.5342 0-6.2997 0.02557-7.0449 0.13763-9.5342 0.29296-6.345 3.2718-9.3808 9.6718-9.6718 2.4892-0.11207 3.2344-0.13567 9.5342-0.13567zm0-4.2529c-6.4079 0-7.2101 0.02753-9.7269 0.14157-8.5688 0.39324-13.331 5.1475-13.724 13.724-0.11601 2.5187-0.14353 3.3209-0.14353 9.7288 0 6.4079 0.02753 7.2121 0.14157 9.7288 0.39324 8.5688 5.1475 13.331 13.724 13.724 2.5187 0.11404 3.3209 0.14157 9.7288 0.14157s7.2121-0.02753 9.7288-0.14157c8.5609-0.39324 13.335-5.1475 13.722-13.724 0.11601-2.5168 0.14353-3.3209 0.14353-9.7288 0-6.4079-0.02753-7.2101-0.14157-9.7269-0.38538-8.5609-5.1456-13.331-13.722-13.724-2.5187-0.11601-3.3229-0.14353-9.7308-0.14353zm0 11.479c-6.691 0-12.116 5.4248-12.116 12.116 0 6.691 5.4248 12.118 12.116 12.118 6.691 0 12.116-5.4248 12.116-12.118 0-6.691-5.4248-12.116-12.116-12.116zm0 19.981c-4.3434 0-7.8648-3.5195-7.8648-7.8649 0-4.3434 3.5215-7.8648 7.8648-7.8648 4.3434 0 7.8649 3.5215 7.8649 7.8648 0 4.3453-3.5215 7.8649-7.8649 7.8649zm12.596-23.29c-1.5651 0-2.8333 1.2682-2.8333 2.8313s1.2682 2.8313 2.8333 2.8313c1.5631 0 2.8294-1.2682 2.8294-2.8313s-1.2662-2.8313-2.8294-2.8313z" fill="#db805d" stroke-width="1.9662"/><path d="m73.992 0h-65.984c-4.4156 0-8.0078 3.5922-8.0078 8.0078v65.984c0 4.4155 3.5922 8.0078 8.0078 8.0078h65.984c4.4155 0 8.0078-3.5923 8.0078-8.0078v-65.984c0-4.4156-3.5923-8.0078-8.0078-8.0078zm4.8047 73.992c0 2.6494-2.1553 4.8047-4.8047 4.8047h-65.984c-2.6495 0-4.8047-2.1553-4.8047-4.8047v-65.984c0-2.6495 2.1552-4.8047 4.8047-4.8047h65.984c2.6494 0 4.8047 2.1552 4.8047 4.8047v65.984z" fill="#DB805D"/><path d="m21.781 10.09h32.031c0.8846 0 1.6016-0.71691 1.6016-1.6015s-0.717-1.6016-1.6016-1.6016h-32.031c-0.8846 0-1.6015 0.71695-1.6015 1.6016s0.7169 1.6015 1.6015 1.6015z" fill="#DB805D"/></svg>
