<svg width="82" height="82" viewBox="0 0 82 82" fill="none" xmlns="http://www.w3.org/2000/svg">
<path d="M61.8203 8.48828C61.8203 9.37289 61.1034 10.0898 60.2188 10.0898C59.3341 10.0898 58.6172 9.37289 58.6172 8.48828C58.6172 7.60367 59.3341 6.88672 60.2188 6.88672C61.1034 6.88672 61.8203 7.60367 61.8203 8.48828Z" fill="#DB805D"/>
<path d="M73.9922 0H8.00781C3.59225 0 0 3.59225 0 8.00781V73.9922C0 78.4077 3.59225 82 8.00781 82H73.9922C78.4077 82 82 78.4077 82 73.9922V8.00781C82 3.59225 78.4077 0 73.9922 0ZM78.7969 73.9922C78.7969 76.6416 76.6416 78.7969 73.9922 78.7969H8.00781C5.35835 78.7969 3.20312 76.6416 3.20312 73.9922V8.00781C3.20312 5.35835 5.35835 3.20312 8.00781 3.20312H73.9922C76.6416 3.20312 78.7969 5.35835 78.7969 8.00781V73.9922Z" fill="#DB805D"/>
<path d="M21.7812 10.0898H53.8125C54.6971 10.0898 55.4141 9.37289 55.4141 8.48828C55.4141 7.60367 54.6971 6.88672 53.8125 6.88672H21.7812C20.8966 6.88672 20.1797 7.60367 20.1797 8.48828C20.1797 9.37289 20.8966 10.0898 21.7812 10.0898Z" fill="#DB805D"/>
<path fill-rule="evenodd" clip-rule="evenodd" d="M41 20.1797C54.2467 20.1797 65.0234 30.9565 65.0234 44.2031C65.0234 44.7168 65.0072 45.2316 64.9753 45.7396C67.0761 48.5117 68.2266 51.9213 68.2266 55.4141C68.2266 64.2452 61.0421 71.4297 52.2109 71.4297C48.7182 71.4297 45.3086 70.2792 42.5365 68.1784C42.0285 68.2103 41.5136 68.2266 41 68.2266C27.7533 68.2266 16.9766 57.4498 16.9766 44.2031C16.9766 43.6895 16.9928 43.1746 17.0247 42.6666C14.9239 39.8945 13.7734 36.485 13.7734 32.9922C13.7734 24.1611 20.9579 16.9766 29.7891 16.9766C33.2818 16.9766 36.6914 18.1271 39.4635 20.2279C39.9715 20.196 40.4864 20.1797 41 20.1797ZM41 39.3983C44.5078 39.3983 47.8686 40.3524 50.4624 42.0847C57.0619 46.4821 57.0682 54.732 50.4599 59.1363C47.8673 60.8668 44.5078 61.8202 41 61.8202C36.3867 61.8202 31.562 60.1292 28.7537 56.602C27.6307 55.1875 27.4224 53.2963 28.21 51.6653C29.8485 48.2714 34.3804 48.3483 36.2547 50.6462C37.312 51.9468 42.2913 53.0354 45.1272 51.1429C45.4481 50.9289 45.6383 50.735 45.7371 50.6093C45.6383 50.4835 45.4487 50.2908 45.129 50.0775C44.1249 49.4075 42.5815 49.0077 41 49.0077C37.4922 49.0077 34.1314 48.0536 31.537 46.3213C24.9381 41.9239 24.9318 33.674 31.5401 29.2697C37.6042 25.2201 48.4129 25.7325 53.2463 31.804C54.3693 33.2185 54.5776 35.1098 53.79 36.7407C52.461 39.4927 49.7769 39.4178 49.035 39.3972C48.9377 39.3944 48.8738 39.3927 48.8508 39.3983C48.0419 39.3983 46.8463 39.1137 45.744 37.758C44.688 36.4592 39.7087 35.3706 36.8728 37.2631C36.5519 37.4771 36.3617 37.671 36.2629 37.7968C36.3617 37.9225 36.5513 38.1152 36.871 38.3285C37.8751 38.9986 39.4185 39.3983 41 39.3983ZM41 58.6171C43.8816 58.6171 46.6098 57.8551 48.6825 56.4712C53.3833 53.3382 53.3833 47.8797 48.685 44.7492C46.6105 43.3641 43.8816 42.6014 41 42.6014C38.7785 42.6014 36.6257 42.0153 35.0936 40.9936C32.2978 39.1299 32.2896 36.4711 35.0949 34.5986C37.668 32.882 40.7604 32.942 42.3745 33.131C44.9595 33.4331 47.1485 34.4078 48.2296 35.7379C48.4623 36.0244 48.695 36.1952 48.8508 36.1952C48.8968 36.1799 48.9896 36.1848 49.1126 36.1913C49.5749 36.2155 50.4642 36.2622 50.9059 35.3481C51.0267 35.0973 51.2525 34.4447 50.7389 33.7972C46.9677 29.0601 37.937 28.8499 33.3181 31.9342C28.6167 35.0678 28.6167 40.5263 33.315 43.6569C35.3895 45.042 38.1184 45.8046 41 45.8046C43.2215 45.8046 45.3743 46.3908 46.9064 47.4124C49.7022 49.2761 49.7104 51.9349 46.9051 53.8074C44.3314 55.5241 41.239 55.464 39.6255 55.2751C37.0405 54.9729 34.8515 53.9982 33.7704 52.6681C33.34 52.1408 31.679 51.8473 31.0941 53.0579C30.9733 53.3088 30.7475 53.9613 31.2611 54.6088C33.4545 57.364 37.4071 58.6171 41 58.6171Z" fill="#DB805D"/>
</svg>
