<?xml version="1.0" encoding="UTF-8"?>
<svg width="82" height="82" version="1.1" viewBox="0 0 82 82" xml:space="preserve" xmlns="http://www.w3.org/2000/svg"><path d="m61.82 8.4883c0 0.88461-0.7169 1.6015-1.6015 1.6015-0.8847 0-1.6016-0.71691-1.6016-1.6015s0.7169-1.6016 1.6016-1.6016c0.8846 0 1.6015 0.71695 1.6015 1.6016z" fill="#DB805D"/><path d="m17.13 21.302 18.381 26.797-17.992 20.842h3.9862l15.766-18.276 12.537 18.276h15.061l-19.204-27.994 16.946-19.645h-3.974l-14.735 17.071-11.711-17.071zm4.76 2.5073h8.9813l29.238 42.624h-8.9813z" fill="#db805d" stroke-width="1.2536"/><path d="m73.992 0h-65.984c-4.4156 0-8.0078 3.5922-8.0078 8.0078v65.984c0 4.4155 3.5922 8.0078 8.0078 8.0078h65.984c4.4155 0 8.0078-3.5923 8.0078-8.0078v-65.984c0-4.4156-3.5923-8.0078-8.0078-8.0078zm4.8047 73.992c0 2.6494-2.1553 4.8047-4.8047 4.8047h-65.984c-2.6495 0-4.8047-2.1553-4.8047-4.8047v-65.984c0-2.6495 2.1552-4.8047 4.8047-4.8047h65.984c2.6494 0 4.8047 2.1552 4.8047 4.8047v65.984z" fill="#DB805D"/><path d="m21.781 10.09h32.031c0.8846 0 1.6016-0.71691 1.6016-1.6015s-0.717-1.6016-1.6016-1.6016h-32.031c-0.8846 0-1.6015 0.71695-1.6015 1.6016s0.7169 1.6015 1.6015 1.6015z" fill="#DB805D"/></svg>
